# xmcd CD database file
#
# Track frame offsets:
#	150
#	15207
#	39555
#	49482
#	66830
#	89492
#	111092
#	130745
#	150262
#	178405
#	199792
#	220455
#
# Disc length: 3192 seconds
#
# Revision: 0
# Processed by: cddbd v1.5.1PL0 Copyright (c) Steve Scherf et al.
# Submitted via: CDex 1.51
#
DISCID=a60c760c
DTITLE=Carsten Schnell -  Moment in the Past
DYEAR=1997
DGENRE=New Age
TTITLE0=Dust
TTITLE1=Retrospective
TTITLE2=Date of Birth
TTITLE3=Sarah´s Diary
TTITLE4=The Spirit of Hearts
TTITLE5=Photos
TTITLE6=Rhythomonix
TTITLE7=Changes
TTITLE8=Time to Think
TTITLE9=Pulse of Memories
TTITLE10=Victims of Eternity
TTITLE11=Fantasies in Past
EXTD=YEAR: 1997
EXTT0=
EXTT1=
EXTT2=
EXTT3=
EXTT4=
EXTT5=
EXTT6=
EXTT7=
EXTT8=
EXTT9=
EXTT10=
EXTT11=
PLAYORDER=
